<!-- icon666.com - MILLIONS vector ICONS FREE --><svg viewBox="0 0 414 414" xmlns="http://www.w3.org/2000/svg"><path d="m414 207c0 114.324219-92.675781 207-207 207s-207-92.675781-207-207 92.675781-207 207-207 207 92.675781 207 207zm0 0" fill="#f0c48a"></path><path d="m87.8125 298.34375 119.1875 64.59375 119.1875-64.59375v-156.339844l-119.1875 64.59375-119.1875-64.59375zm0 0" fill="#fd919e"></path><path d="m295.25 315.109375 30.9375-16.765625v-156.339844l-30.9375 16.765625zm0 0" fill="#e8677d"></path><path d="m207 77.410156 119.1875 64.59375-119.1875 64.59375-119.1875-64.59375zm0 0" fill="#d3e6f8"></path><path d="m256.171875 51.0625 119.1875 64.59375-49.171875 26.347656-119.1875-64.59375zm0 0" fill="#a4cff2"></path><path d="m157.828125 51.0625-119.1875 64.59375 49.171875 26.347656 119.1875-64.59375zm0 0" fill="#a4cff2"></path><g fill="#4c4372"><path d="m207 212.597656c-.984375 0-1.96875-.242187-2.859375-.726562l-119.1875-64.59375c-1.9375-1.046875-3.140625-3.074219-3.140625-5.273438 0-2.203125 1.203125-4.226562 3.140625-5.277344l119.1875-64.59375c1.785156-.964843 3.933594-.964843 5.71875 0l119.1875 64.59375c1.9375 1.050782 3.140625 3.074219 3.140625 5.277344 0 2.199219-1.203125 4.226563-3.140625 5.273438l-119.1875 64.59375c-.890625.484375-1.875.726562-2.859375.726562zm-106.597656-70.59375 106.597656 57.769532 106.597656-57.769532-106.597656-57.769531zm0 0"></path><path d="m207 368.9375c-.984375 0-1.96875-.242188-2.859375-.726562l-119.1875-64.59375c-1.9375-1.046876-3.140625-3.070313-3.140625-5.273438v-156.339844c0-2.117187 1.113281-4.074218 2.929688-5.15625 1.816406-1.082031 4.066406-1.125 5.929687-.121094l116.328125 63.046876 116.328125-63.046876c1.859375-1.003906 4.113281-.960937 5.929687.121094 1.816407 1.082032 2.929688 3.042969 2.929688 5.15625v156.339844c0 2.199219-1.203125 4.222656-3.140625 5.273438l-119.1875 64.59375c-.890625.484374-1.875.726562-2.859375.726562zm-113.1875-74.167969 113.1875 61.34375 113.1875-61.34375v-142.691406l-110.328125 59.792969c-1.785156.96875-3.933594.96875-5.71875 0l-110.328125-59.792969zm0 0"></path><path d="m326.1875 148.003906c-.984375 0-1.964844-.242187-2.859375-.726562l-119.1875-64.59375c-1.941406-1.050782-3.148437-3.082032-3.140625-5.289063.003906-2.207031 1.21875-4.230469 3.164062-5.273437l49.171876-26.34375c1.78125-.957032 3.917968-.949219 5.691406.011718l119.191406 64.59375c1.941406 1.054688 3.144531 3.085938 3.140625 5.292969s-1.21875 4.230469-3.167969 5.273438l-49.171875 26.34375c-.882812.472656-1.855469.710937-2.832031.710937zm-106.539062-70.566406 106.554687 57.75 36.507813-19.558594-106.558594-57.75zm0 0"></path><path d="m87.8125 148.003906c-.976562 0-1.949219-.238281-2.835938-.710937l-49.167968-26.347657c-1.945313-1.039062-3.164063-3.066406-3.167969-5.273437s1.199219-4.238281 3.140625-5.289063l119.1875-64.59375c1.777344-.960937 3.914062-.96875 5.691406-.015624l49.171875 26.347656c1.945313 1.039062 3.160157 3.066406 3.167969 5.273437.003906 2.207031-1.199219 4.238281-3.140625 5.289063l-119.1875 64.59375c-.894531.484375-1.878906.726562-2.859375.726562zm-36.523438-32.375 36.503907 19.558594 106.558593-57.75-36.507812-19.558594zm0 0"></path></g><path d="m87.8125 142.003906 119.1875 64.59375-49.171875 26.34375-119.1875-64.59375zm0 0" fill="#a4cff2"></path><path d="m157.828125 238.941406c-.984375 0-1.964844-.242187-2.859375-.722656l-119.1875-64.59375c-1.941406-1.050781-3.144531-3.085938-3.140625-5.289062.003906-2.207032 1.21875-4.234376 3.167969-5.273438l49.167968-26.347656c1.78125-.953125 3.917969-.949219 5.695313.015625l119.1875 64.59375c1.941406 1.050781 3.144531 3.082031 3.140625 5.289062s-1.222656 4.230469-3.167969 5.273438l-49.171875 26.34375c-.882812.476562-1.855468.710937-2.832031.710937zm-106.539063-70.5625 106.554688 57.75 36.507812-19.5625-106.558593-57.75zm0 0" fill="#4c4372"></path><path d="m326.1875 142.003906-119.1875 64.59375 49.171875 26.34375 119.1875-64.59375zm0 0" fill="#a4cff2"></path><path d="m256.171875 238.941406c-.976563 0-1.949219-.238281-2.835937-.710937l-49.171876-26.34375c-1.941406-1.042969-3.160156-3.066407-3.164062-5.273438-.007812-2.207031 1.199219-4.238281 3.140625-5.289062l119.1875-64.59375c1.777344-.960938 3.914063-.96875 5.691406-.015625l49.171875 26.347656c1.945313 1.039062 3.164063 3.066406 3.167969 5.273438.007813 2.203124-1.199219 4.238281-3.140625 5.289062l-119.191406 64.59375c-.890625.480469-1.875.722656-2.855469.722656zm-36.523437-32.375 36.503906 19.5625 106.558594-57.75-36.507813-19.5625zm0 0" fill="#4c4372"></path><path d="m207 368.9375c-3.3125 0-6-2.6875-6-6v-156.339844c0-3.3125 2.6875-6 6-6s6 2.6875 6 6v156.339844c0 3.3125-2.6875 6-6 6zm0 0" fill="#4c4372"></path><path d="m199.5625 136.261719-17.027344-20.5625c-.628906-.761719-1.800781-.757813-2.425781.003906l-16.882813 20.570313c-.550781.667968-.453124 1.660156.21875 2.210937l4.121094 3.386719c.671875.550781 1.664063.453125 2.214844-.21875l7.328125-8.925782v32.742188c0 .867188.703125 1.570312 1.570313 1.570312h5.335937c.867187 0 1.574219-.703124 1.574219-1.570312v-32.789062l7.441406 8.992187c.554688.667969 1.546875.761719 2.214844.207031l4.109375-3.402344c.667969-.554687.761719-1.546874.207031-2.214843zm0 0" fill="#4c4372"></path><path d="m250.769531 136.261719-17.027343-20.5625c-.632813-.761719-1.800782-.757813-2.425782.003906l-16.882812 20.570313c-.550782.667968-.453125 1.660156.21875 2.210937l4.121094 3.386719c.671874.550781 1.664062.453125 2.214843-.21875l7.324219-8.925782v32.742188c0 .867188.707031 1.570312 1.574219 1.570312h5.335937c.867188 0 1.570313-.703124 1.570313-1.570312v-32.789062l7.445312 8.992187c.554688.667969 1.546875.761719 2.214844.207031l4.109375-3.402344c.667969-.554687.761719-1.546874.207031-2.214843zm0 0" fill="#4c4372"></path></svg>