<!-- icon666.com - MILLIONS vector ICONS FREE --><svg viewBox="0 0 414 414" xmlns="http://www.w3.org/2000/svg"><path d="m414 207c0 114.324219-92.675781 207-207 207s-207-92.675781-207-207 92.675781-207 207-207 207 92.675781 207 207zm0 0" fill="#f0c48a"></path><path d="m280.113281 140.585938v-24.238282h-24.582031c-1.367188-5.96875-3.722656-11.5625-6.882812-16.597656l17.386718-17.386719-17.136718-17.136719-17.386719 17.386719c-5.035157-3.160156-10.625-5.515625-16.597657-6.882812v-24.582031h-24.234374v24.582031c-5.972657 1.367187-11.5625 3.722656-16.597657 6.882812l-17.386719-17.386719-17.136718 17.136719 17.382812 17.386719c-3.160156 5.035156-5.515625 10.628906-6.878906 16.597656h-24.582031v24.238282h24.582031c1.363281 5.96875 3.71875 11.558593 6.878906 16.59375l-17.382812 17.386718 17.136718 17.136719 17.386719-17.382813c5.035157 3.160157 10.625 5.515626 16.597657 6.878907v24.582031h24.234374v-24.582031c5.972657-1.363281 11.5625-3.71875 16.597657-6.878907l17.386719 17.382813 17.136718-17.136719-17.386718-17.386718c3.160156-5.035157 5.515624-10.625 6.882812-16.59375zm-77.316406 15.960937c-15.507813 0-28.082031-12.570313-28.082031-28.082031 0-15.507813 12.574218-28.082032 28.082031-28.082032s28.082031 12.574219 28.082031 28.082032c0 15.511718-12.574218 28.082031-28.082031 28.082031zm0 0" fill="#fd919e"></path><path d="m214.914062 211.78125h-24.234374c-3.3125 0-6-2.6875-6-6v-20c-3.308594-1.042969-6.515626-2.375-9.597657-3.976562l-14.144531 14.144531c-2.339844 2.339843-6.140625 2.339843-8.484375 0l-17.136719-17.140625c-2.34375-2.339844-2.34375-6.140625 0-8.484375l14.144532-14.144531c-1.605469-3.082032-2.9375-6.289063-3.980469-9.59375h-19.996094c-3.3125 0-6-2.6875-6-6v-24.238282c0-3.3125 2.6875-6 6-6h19.996094c1.042969-3.308594 2.375-6.511718 3.980469-9.59375l-14.144532-14.144531c-2.34375-2.34375-2.34375-6.144531 0-8.488281l17.136719-17.136719c1.125-1.125 2.652344-1.757813 4.246094-1.757813 1.589843 0 3.117187.632813 4.242187 1.757813l14.144532 14.144531c3.082031-1.605468 6.289062-2.9375 9.59375-3.980468v-20c0-3.3125 2.6875-6 6-6h24.238281c3.3125 0 6 2.6875 6 6v20c3.308593 1.042968 6.515625 2.375 9.597656 3.980468l14.140625-14.144531c2.34375-2.34375 6.144531-2.34375 8.488281 0l17.136719 17.136719c1.125 1.125 1.757812 2.652344 1.757812 4.242187 0 1.59375-.632812 3.121094-1.757812 4.246094l-14.144531 14.144531c1.605469 3.082032 2.9375 6.285156 3.980469 9.59375h19.996093c3.316407 0 6 2.6875 6 6v24.238282c0 3.3125-2.683593 6-6 6h-19.996093c-1.042969 3.304687-2.375 6.511718-3.980469 9.59375l14.144531 14.144531c1.125 1.125 1.757812 2.652343 1.757812 4.242187 0 1.59375-.632812 3.121094-1.757812 4.246094l-17.136719 17.136719c-2.34375 2.34375-6.144531 2.34375-8.488281 0l-14.140625-14.144531c-3.085937 1.605468-6.289063 2.9375-9.597656 3.980468v19.996094c-.003907 3.3125-2.6875 6-6.003907 6zm-18.234374-12h12.234374v-18.582031c0-2.796875 1.933594-5.222657 4.664063-5.847657 5.222656-1.195312 10.183594-3.253906 14.746094-6.117187 2.367187-1.488281 5.453125-1.136719 7.429687.839844l13.144532 13.144531 8.652343-8.652344-13.144531-13.144531c-1.976562-1.980469-2.324219-5.0625-.835938-7.433594 2.859376-4.558593 4.917969-9.519531 6.113282-14.746093.625-2.726563 3.050781-4.660157 5.847656-4.660157h18.582031v-12.234375h-18.582031c-2.796875 0-5.222656-1.9375-5.847656-4.664062-1.195313-5.222656-3.253906-10.183594-6.113282-14.746094-1.488281-2.371094-1.140624-5.453125.835938-7.433594l13.144531-13.140625-8.652343-8.652343-13.144532 13.140624c-1.976562 1.976563-5.0625 2.328126-7.429687.839844-4.5625-2.863281-9.523438-4.917968-14.746094-6.117187-2.730469-.621094-4.664063-3.050781-4.664063-5.847657v-18.578124h-12.234374v18.578124c0 2.796876-1.9375 5.226563-4.664063 5.847657-5.222656 1.199219-10.183594 3.253906-14.746094 6.117187-2.367187 1.488282-5.453125 1.136719-7.429687-.839844l-13.144532-13.140624-8.652343 8.652343 13.144531 13.140625c1.976562 1.980469 2.324219 5.0625.835938 7.433594-2.863282 4.5625-4.917969 9.523438-6.113282 14.746094-.625 2.726562-3.050781 4.660156-5.851562 4.660156h-18.578125v12.238281h18.578125c2.800781 0 5.226562 1.933594 5.851562 4.660157 1.195313 5.226562 3.25 10.1875 6.113282 14.746093 1.488281 2.371094 1.140624 5.453125-.835938 7.433594l-13.144531 13.140625 8.652343 8.65625 13.144532-13.144531c1.976562-1.976563 5.058594-2.328125 7.429687-.839844 4.5625 2.863281 9.523438 4.921875 14.746094 6.117187 2.726563.625 4.664063 3.050782 4.664063 5.847657zm6.117187-37.234375c-18.792969 0-34.082031-15.289063-34.082031-34.082031 0-18.792969 15.289062-34.082032 34.082031-34.082032s34.082031 15.289063 34.082031 34.082032c0 18.792968-15.289062 34.082031-34.082031 34.082031zm0-56.164063c-12.175781 0-22.082031 9.90625-22.082031 22.082032 0 12.175781 9.90625 22.082031 22.082031 22.082031s22.082031-9.90625 22.082031-22.082031c0-12.175782-9.90625-22.082032-22.082031-22.082032zm0 0" fill="#4c4372"></path><path d="m95.210938 231.058594h111.789062v131.789062h-111.789062zm0 0" fill="#d3e6f8"></path><path d="m207 231.058594h111.789062v131.789062h-111.789062zm0 0" fill="#e8677d"></path><path d="m207 368.851562h-111.789062c-3.316407 0-6-2.6875-6-6v-131.792968c0-3.3125 2.683593-6 6-6h111.789062c3.3125 0 6 2.6875 6 6v131.792968c0 3.3125-2.6875 6-6 6zm-105.789062-12h99.789062v-119.792968h-99.789062zm0 0" fill="#4c4372"></path><path d="m318.789062 368.851562h-111.789062c-3.3125 0-6-2.6875-6-6v-131.792968c0-3.3125 2.6875-6 6-6h111.789062c3.316407 0 6 2.6875 6 6v131.792968c0 3.3125-2.683593 6-6 6zm-105.789062-12h99.789062v-119.792968h-99.789062zm0 0" fill="#4c4372"></path><path d="m348.789062 275.78125h-111.789062l-30-44.722656h111.789062zm0 0" fill="#fd919e"></path><path d="m348.789062 281.78125h-111.789062c-2 0-3.867188-.996094-4.984375-2.660156l-30-44.71875c-1.234375-1.839844-1.351563-4.210938-.308594-6.167969 1.039063-1.953125 3.078125-3.175781 5.292969-3.175781h111.789062c2 0 3.871094.996094 4.984376 2.660156l30 44.71875c1.234374 1.839844 1.355468 4.210938.3125 6.167969-1.042969 1.953125-3.078126 3.175781-5.296876 3.175781zm-108.589843-12h97.339843l-21.949218-32.722656h-97.339844zm0 0" fill="#4c4372"></path><path d="m177 275.78125h-111.789062l20-44.722656h121.789062zm0 0" fill="#fff"></path><path d="m177 281.78125h-111.789062c-2.035157 0-3.929688-1.03125-5.035157-2.734375-1.109375-1.707031-1.273437-3.859375-.445312-5.714844l20-44.722656c.96875-2.160156 3.113281-3.550781 5.480469-3.550781h121.789062c2.214844 0 4.25 1.222656 5.292969 3.175781 1.042969 1.957031.925781 4.328125-.308594 6.167969l-30 44.722656c-1.117187 1.660156-2.984375 2.65625-4.984375 2.65625zm-102.535156-12h99.335937l21.949219-32.722656h-106.652344zm0 0" fill="#4c4372"></path></svg>