<!-- icon666.com - MILLIONS vector ICONS FREE --><svg viewBox="0 -11 470.92548 470" xmlns="http://www.w3.org/2000/svg"><path d="m68.527344 127.664062v30.398438h93.597656s0 0 0-.800781c0-32.800781 26.402344-59.199219 59.199219-59.199219 32.800781 0 59.203125 26.398438 59.203125 59.199219v.800781h93.597656v-28.800781l-40.800781-8.800781c-1.597657-4.796876-3.199219-9.597657-5.597657-14.398438l22.398438-35.199219-40.800781-40.800781-35.199219 22.398438c-4.800781-2.398438-9.597656-4-14.398438-5.597657l-8.800781-40.800781h-57.601562l-8.796875 40.800781c-4.800782 1.597657-8.800782 3.199219-13.601563 5.597657l-35.199219-22.398438-41.601562 40.800781 22.402344 35.199219c-2.402344 4.800781-4 9.601562-5.601563 14.398438zm0 0" fill="#84dbff"></path><g fill="#c5f1ff"><path d="m268.527344 54.0625c4.796875 1.601562 9.597656 3.199219 14.398437 5.601562l34.398438-21.601562-8.796875-8.800781-35.203125 22.402343c-1.597657-.800781-4-1.601562-6.398438-2.402343zm0 0"></path><path d="m78.125 136.460938 40.800781-8.796876c1.601563-4.800781 4-9.601562 5.601563-14.402343l-22.402344-35.199219 41.601562-40.800781 35.199219 22.402343c4-2.402343 8.800781-4 13.601563-5.601562l8.796875-40.800781h50.402343l-1.601562-8.800781h-57.597656l-8.800782 40.800781c-4.800781 1.601562-8.800781 3.199219-13.601562 5.601562l-35.199219-22.402343-41.601562 40.800781 22.402343 35.199219c-2.402343 4.800781-4 9.601562-5.601562 14.402343l-40.800781 8.800781v30.398438h9.601562zm0 0"></path><path d="m303.726562 158.0625c0-46.398438-36.800781-83.199219-83.199218-83.199219-46.402344 0-83.203125 36.800781-83.203125 83.199219v.800781h166.402343zm0 0"></path></g><path d="m169.324219 50.863281c4-2.402343 8.800781-4 13.601562-5.601562l.800781-4-20-12.800781h-29.601562zm0 0" fill="#52badb"></path><path d="m273.324219 51.664062 14.402343-8.800781-8-37.601562h-29.601562l8.800781 40.800781c4.800781 1.601562 9.601563 3.199219 14.398438 5.601562zm0 0" fill="#52badb"></path><path d="m362.125 119.664062c-1.597656-4.800781-3.199219-9.601562-5.597656-14.402343l22.398437-35.199219-40.800781-40.800781h-29.597656l40.796875 40.800781-22.398438 35.199219c2.398438 4.800781 4 9.601562 5.601563 14.402343l40.796875 8.796876v28.800781h29.601562v-28.800781zm0 0" fill="#52badb"></path><path d="m280.527344 158.0625c0-32.800781-26.402344-59.199219-59.203125-59.199219-32.796875 0-59.199219 26.398438-59.199219 59.199219v.800781h118.402344zm0 0" fill="#fff2d2"></path><path d="m66.925781 158.0625h337.601563v238.398438h-337.601563zm0 0" fill="#f9a287"></path><path d="m66.925781 158.0625h14.398438v238.398438h-14.398438zm0 0" fill="#ffcdc0"></path><path d="m235.726562 158.0625h14.398438v238.398438h-14.398438zm0 0" fill="#ffcdc0"></path><path d="m466.925781 218.863281h-168.800781l-62.398438-60.800781h168.800782zm0 0" fill="#fff2d2"></path><path d="m404.527344 158.0625h-168.800782l12.800782 12.800781h168.796875zm0 0" fill="#fff"></path><path d="m4.527344 218.863281h168.796875l62.402343-60.800781h-168.800781zm0 0" fill="#fff2d2"></path><path d="m73.324219 171.664062h148.800781l13.601562-13.601562h-168.800781l-62.398437 60.800781h20zm0 0" fill="#fff"></path><path d="m404.527344 449.261719h-376c-2.402344 0-4-1.597657-4-4v-49.597657c0-2.402343 1.597656-4 4-4h376c2.398437 0 4 1.597657 4 4v49.597657c0 2.402343-1.601563 4-4 4zm-372-8h368v-41.597657h-368zm0 0" fill="#63312d"></path><path d="m28.527344 396.460938h376v49.601562h-376zm0 0" fill="#fff2d2"></path><path d="m41.324219 409.261719h363.203125v-12.800781h-376v48.800781h12.796875zm0 0" fill="#fff"></path><path d="m404.527344 396.460938h40v49.601562h-40zm0 0" fill="#ead194"></path><path d="m469.324219 215.664062-62.398438-60.800781v-25.601562c0-1.597657-1.601562-3.199219-3.199219-4l-3.199218-.800781-35.203125-8c-1.597657-4-2.398438-7.199219-4-10.398438l20.800781-33.601562c.800781-1.597657.800781-3.199219-.800781-4.796876l-40.796875-40.800781c-.800782-1.601562-1.601563-1.601562-2.402344-1.601562h-29.597656c-.800782 0-.800782 0-.800782 0h-.800781l-16 10.402343-7.199219-32c0-1.601562-1.601562-3.203124-4-3.203124h-88c-1.601562 0-3.199218 1.601562-4 3.203124l-7.199218 31.199219-14.402344-9.601562c-.800781-.800781-1.597656-.800781-2.398438-.800781h-29.601562-.800781c-.796875.800781-1.597657.800781-1.597657 1.601562l-40.800781 40.800781c-1.601562 1.597657-1.601562 3.199219-.800781 4.800781l20.800781 33.597657c-1.601562 3.199219-3.199219 7.199219-4.800781 10.402343l-38.398438 8c-1.601562 0-3.199218 2.398438-3.199218 4v27.199219h-.800782l-62.402343 60c-1.597657.800781-1.597657 3.199219-.796875 4 .796875 1.597657 1.597656 2.398438 4 2.398438h58.398437v169.601562h-34.398437c-2.402344 0-4 1.597657-4 4v49.597657c0 2.402343 1.597656 4 4 4h416c2.398437 0 4-1.597657 4-4v-49.597657c0-2.402343-1.601563-4-4-4h-36v-168h58.398437c1.601563 0 3.199219-.800781 4-2.402343 0-1.597657 0-4-1.601562-4.796876zm-92-83.203124h21.601562v21.601562h-21.601562zm-40.796875-99.199219 37.597656 37.601562-20.800781 32.800781c-.796875.796876-.796875 2.398438 0 4 1.601562 4 4 8.796876 5.601562 13.597657l-22.398437-4.800781c-1.601563-4-2.402344-7.199219-4-10.398438l20.796875-33.601562c.800781-.796876.800781-1.597657.800781-2.398438s0-.800781 0-1.601562c0-.796876 0-.796876-.800781-.796876l-35.199219-34.402343zm-60-24 7.199218 31.199219-10.402343 6.402343c-3.199219-1.601562-6.398438-3.199219-10.398438-4l-8-33.601562zm-113.601563 23.199219 16 10.402343c-.800781 0-1.601562.800781-2.398437.800781-.800782 0-1.601563.796876-1.601563.796876-1.601562.800781-3.199219.800781-4.800781 1.601562l-22.398438-13.601562zm-90.398437 98.402343 37.597656-8c1.601562 0 2.402344-1.601562 3.199219-2.402343 1.601562-4.796876 4-9.597657 5.601562-13.597657.800781-1.601562.800781-2.402343 0-4l-20.800781-32.800781 36.800781-36.800781 32 20.800781c.800781.800781 1.601563.800781 2.398438.800781.800781 0 .800781 0 1.601562-.800781 4-1.601562 8-3.199219 12.800781-5.601562.800782 0 1.597657-.796876 1.597657-1.597657s.800781-.800781.800781-.800781l1.601562-4 7.199219-32.800781h51.199219l8 37.601562c0 1.597657 1.601562 2.398438 2.402344 3.199219 4 1.601562 7.199218 2.398438 10.398437 4 .800781.800781 2.398438.800781 3.199219 1.601562.800781 0 .800781.796876 1.601562.796876.800782 0 1.597657 0 2.398438-.796876l33.601562-21.601562 36 36.800781-20 32c0 .800781-.800781.800781-.800781 1.597657v1.601562c.800781 1.601562 1.601563 3.199219 1.601563 4.800781 1.597656 3.199219 2.398437 5.597657 4 8.800781.796875 1.597657 1.597656 2.398438 3.199218 2.398438l37.597657 8.800781v21.597657h-61.597657c-1.601562-46.398438-40-83.199219-86.402343-83.199219-46.398438 0-84.796875 36.800781-86.398438 83.199219h-61.601562zm328 261.597657h-160.800782v-224.796876l56 54.398438c.800782.800781 1.597657.800781 2.398438.800781h102.402344zm-179.203125-298.398438c-33.597657 0-60.796875 26.398438-63.199219 59.199219h-16c1.601562-41.597657 36.800781-75.199219 79.199219-75.199219 42.402343 0 76.800781 33.601562 79.203125 75.199219h-16c-2.402344-32.800781-29.601563-59.199219-63.203125-59.199219zm54.402343 60h-109.601562c1.601562-28.800781 25.601562-51.199219 55.199219-51.199219 29.601562 0 52.800781 22.398438 54.402343 51.199219zm-261.601562 60.800781 48.800781-47.199219 5.601563-5.601562h157.597656l-54.398438 52.800781zm56.800781 8h102.398438c.800781 0 2.402343 0 3.203125-.800781l55.199218-54.398438v224.796876h-160.800781zm-38.398437 177.597657h368v40.800781h-368zm408 40.800781h-32v-41.597657h32zm-32-226.398438h-108.800782l-54.402343-52.800781h157.601562l5.601563 5.601562 48.796875 47.199219zm0 0" fill="#63312d"></path></svg>