<!-- icon666.com - MILLIONS vector ICONS FREE --><svg viewBox="0 0 414 414" xmlns="http://www.w3.org/2000/svg"><path d="m414 207c0 114.324219-92.675781 207-207 207s-207-92.675781-207-207 92.675781-207 207-207 207 92.675781 207 207zm0 0" fill="#f0c48a"></path><path d="m357.292969 344.425781h-300.585938c-10.992187 0-19.90625-8.914062-19.90625-19.90625v-177.617187c0-10.992188 8.914063-19.902344 19.90625-19.902344h300.585938c10.992187 0 19.90625 8.910156 19.90625 19.902344v177.617187c0 10.992188-8.914063 19.90625-19.90625 19.90625zm0 0" fill="#a4cff2"></path><path d="m357.292969 127h-3.625v217.425781h3.625c10.992187 0 19.90625-8.914062 19.90625-19.90625v-177.617187c0-10.992188-8.914063-19.902344-19.90625-19.902344zm0 0" fill="#7babf1"></path><path d="m252.804688 69.574219h-91.605469c-10.96875 0-19.859375 8.894531-19.859375 19.859375v37.566406h21.59375v-23.027344c0-7.359375 5.964844-13.328125 13.328125-13.328125h61.480469c7.359374 0 13.328124 5.96875 13.328124 13.328125v23.027344h21.589844v-37.566406c0-10.96875-8.890625-19.859375-19.855468-19.859375zm0 0" fill="#fd919e"></path><path d="m251.070312 109.34375h21.589844v17.65625h-21.589844zm0 0" fill="#e8677d"></path><path d="m141.339844 109.34375h21.589844v17.65625h-21.589844zm0 0" fill="#e8677d"></path><path d="m357.292969 350.425781h-300.585938c-14.285156 0-25.90625-11.621093-25.90625-25.90625v-177.617187c0-14.28125 11.621094-25.902344 25.90625-25.902344h300.585938c14.285156 0 25.90625 11.621094 25.90625 25.902344v177.617187c0 14.285157-11.621094 25.90625-25.90625 25.90625zm-300.585938-217.425781c-7.667969 0-13.90625 6.238281-13.90625 13.902344v177.617187c0 7.667969 6.238281 13.90625 13.90625 13.90625h300.585938c7.667969 0 13.90625-6.238281 13.90625-13.90625v-177.617187c0-7.664063-6.238281-13.902344-13.90625-13.902344zm0 0" fill="#4c4372"></path><path d="m272.660156 133h-21.589844c-3.316406 0-6-2.6875-6-6v-23.027344c0-4.039062-3.289062-7.328125-7.328124-7.328125h-61.484376c-4.039062 0-7.328124 3.289063-7.328124 7.328125v23.027344c0 3.3125-2.6875 6-6 6h-21.589844c-3.3125 0-6-2.6875-6-6v-37.566406c0-14.257813 11.601562-25.859375 25.859375-25.859375h91.605469c14.257812 0 25.855468 11.601562 25.855468 25.859375v37.566406c0 3.3125-2.6875 6-6 6zm-15.589844-12h9.589844v-31.566406c0-7.640625-6.214844-13.859375-13.855468-13.859375h-91.605469c-7.640625 0-13.859375 6.21875-13.859375 13.859375v31.566406h9.589844v-17.027344c0-10.65625 8.671874-19.328125 19.328124-19.328125h61.484376c10.65625 0 19.328124 8.671875 19.328124 19.328125zm0 0" fill="#4c4372"></path><path d="m90.523438 127h22.792968v217.425781h-22.792968zm0 0" fill="#fd919e"></path><path d="m300.683594 127h22.792968v217.425781h-22.792968zm0 0" fill="#fd919e"></path><path d="m113.316406 350.425781h-22.792968c-3.316407 0-6-2.6875-6-6v-217.425781c0-3.3125 2.683593-6 6-6h22.792968c3.3125 0 6 2.6875 6 6v217.425781c0 3.3125-2.6875 6-6 6zm-16.796875-12h10.792969v-205.425781h-10.792969zm0 0" fill="#4c4372"></path><path d="m323.480469 350.425781h-22.792969c-3.316406 0-6-2.6875-6-6v-217.425781c0-3.3125 2.683594-6 6-6h22.792969c3.3125 0 6 2.6875 6 6v217.425781c0 3.3125-2.6875 6-6 6zm-16.796875-12h10.792968v-205.425781h-10.792968zm0 0" fill="#4c4372"></path><path d="m332.773438 203.675781h-41.382813c-4.199219 0-7.597656 3.402344-7.597656 7.597657v48.878906c0 4.195312 3.402343 7.597656 7.597656 7.597656h41.382813c4.195312 0 7.597656-3.402344 7.597656-7.597656v-48.878906c0-4.195313-3.402344-7.597657-7.597656-7.597657zm-9.296876 41.882813c0 1.6875-1.367187 3.058594-3.058593 3.058594h-16.671875c-1.691406 0-3.0625-1.371094-3.0625-3.058594v-19.691406c0-1.691407 1.371094-3.0625 3.0625-3.0625h16.671875c1.691406 0 3.058593 1.371093 3.058593 3.0625zm0 0" fill="#fff"></path><path d="m122.609375 203.675781h-41.382813c-4.195312 0-7.597656 3.402344-7.597656 7.597657v48.878906c0 4.195312 3.402344 7.597656 7.597656 7.597656h41.382813c4.199219 0 7.597656-3.402344 7.597656-7.597656v-48.878906c0-4.195313-3.398437-7.597657-7.597656-7.597657zm-9.292969 41.882813c0 1.6875-1.371094 3.058594-3.0625 3.058594h-16.671875c-1.691406 0-3.0625-1.371094-3.0625-3.058594v-19.691406c0-1.691407 1.371094-3.0625 3.0625-3.0625h16.671875c1.691406 0 3.0625 1.371093 3.0625 3.0625zm0 0" fill="#fff"></path><path d="m122.609375 203.675781h-9.292969v64.074219h9.292969c4.199219 0 7.597656-3.402344 7.597656-7.597656v-48.878906c0-4.195313-3.398437-7.597657-7.597656-7.597657zm0 0" fill="#d3e6f8"></path><path d="m332.773438 203.675781h-9.296876v64.074219h9.296876c4.195312 0 7.597656-3.402344 7.597656-7.597656v-48.878906c0-4.195313-3.402344-7.597657-7.597656-7.597657zm0 0" fill="#d3e6f8"></path><g fill="#4c4372"><path d="m122.609375 273.75h-41.382813c-7.5 0-13.597656-6.101562-13.597656-13.597656v-48.878906c0-7.5 6.101563-13.597657 13.597656-13.597657h41.382813c7.5 0 13.597656 6.097657 13.597656 13.597657v48.878906c0 7.496094-6.097656 13.597656-13.597656 13.597656zm-41.382813-64.074219c-.882812 0-1.597656.714844-1.597656 1.597657v48.878906c0 .878906.714844 1.597656 1.597656 1.597656h41.382813c.882813 0 1.597656-.71875 1.597656-1.597656v-48.878906c0-.882813-.714843-1.597657-1.597656-1.597657zm29.027344 44.941407h-16.671875c-4.996093 0-9.0625-4.0625-9.0625-9.058594v-19.691406c0-4.996094 4.066407-9.0625 9.0625-9.0625h16.671875c4.996094 0 9.0625 4.066406 9.0625 9.0625v19.691406c0 4.996094-4.066406 9.058594-9.0625 9.058594zm-13.734375-12h10.792969v-13.808594h-10.792969zm0 0"></path><path d="m332.773438 273.75h-41.382813c-7.5 0-13.597656-6.101562-13.597656-13.597656v-48.878906c0-7.5 6.097656-13.597657 13.597656-13.597657h41.382813c7.5 0 13.597656 6.097657 13.597656 13.597657v48.878906c0 7.496094-6.097656 13.597656-13.597656 13.597656zm-41.382813-64.074219c-.882813 0-1.597656.714844-1.597656 1.597657v48.878906c0 .878906.714843 1.597656 1.597656 1.597656h41.382813c.882812 0 1.597656-.71875 1.597656-1.597656v-48.878906c0-.882813-.714844-1.597657-1.597656-1.597657zm29.027344 44.941407h-16.671875c-4.996094 0-9.0625-4.0625-9.0625-9.058594v-19.691406c0-4.996094 4.066406-9.0625 9.0625-9.0625h16.671875c4.996093 0 9.0625 4.066406 9.0625 9.0625v19.691406c0 4.996094-4.066407 9.058594-9.0625 9.058594zm-13.734375-12h10.792968v-13.808594h-10.792968zm0 0"></path></g></svg>