<!-- icon666.com - MILLIONS vector ICONS FREE --><svg viewBox="-29 0 470 470.4" xmlns="http://www.w3.org/2000/svg"><path d="m128.199219 4h177.601562v256.800781h-177.601562zm0 0" fill="#fff2d2"></path><path d="m305.800781 264.800781h-177.601562c-2.398438 0-4-1.601562-4-4v-256.800781c0-2.398438 1.601562-4 4-4h177.601562c2.398438 0 4 1.601562 4 4v256.800781c0 2.398438-2.402343 4-4 4zm-173.601562-8h169.601562v-248.800781h-169.601562zm0 0" fill="#63312d"></path><path d="m144.199219 38.398438-52.800781 53.601562v198.398438h177.601562v-252zm0 0" fill="#fff2d2"></path><path d="m269 294.398438h-177.601562c-2.398438 0-4-1.597657-4-4v-198.398438c0-.800781.800781-2.398438.800781-3.199219l52.800781-53.601562c.800781-.800781 1.601562-.800781 3.199219-.800781h124.800781c2.398438 0 4 1.601562 4 4v252c0 2.402343-1.601562 4-4 4zm-173.601562-8h169.601562v-244h-119.199219l-50.402343 51.203124zm0 0" fill="#63312d"></path><path d="m91.398438 92h52.800781v-53.601562zm0 0" fill="#ead194"></path><path d="m144.199219 96h-52.800781c-1.597657 0-3.199219-.800781-4-2.398438-.796876-1.601562 0-3.203124.800781-4l52.800781-53.601562c.800781-.800781 3.199219-1.601562 4-.800781 1.601562.800781 2.398438 2.402343 2.398438 4v53.601562c.800781 1.597657-.796876 3.199219-3.199219 3.199219zm-43.199219-8h39.199219v-40zm0 0" fill="#63312d"></path><path d="m378.601562 229.601562c-1.601562-17.601562-16.800781-32-35.203124-32h-37.597657c18.398438 0 33.597657 14.398438 35.199219 32v174.398438c0 17.601562-14.398438 32-32 32h37.601562c17.597657 0 32-14.398438 32-32zm0 0" fill="#efc36a"></path><path d="m341 229.601562v37.597657h37.601562v-37.597657c-1.601562-17.601562-16.800781-32-35.203124-32h-37.597657c18.398438 0 33.597657 14.398438 35.199219 32zm0 0" fill="#52badb"></path><path d="m341 229.601562c-1.601562-17.601562-16.800781-32-35.199219-32h-266.402343c-18.398438 0-33.597657 14.398438-35.199219 32v174.398438c0 17.601562 14.402343 32 32 32h272.800781c17.601562 0 32-14.398438 32-32zm0 0" fill="#f9dd9d"></path><path d="m17 416.800781v-173.601562c1.601562-17.597657 16.800781-32 35.199219-32h266.402343c6.398438 0 12 1.601562 17.597657 4.800781-6.398438-10.398438-17.597657-17.601562-30.398438-17.601562h-266.402343c-18.398438 0-33.597657 14.402343-35.199219 32v174.402343c0 12 7.199219 22.398438 16.800781 28-2.398438-4.800781-4-10.402343-4-16zm0 0" fill="#fff2d2"></path><path d="m341 232.800781v35.199219l-143.199219 55.199219h-50.402343l-130.398438-50.398438-12.800781-4.800781v-35.199219c0-.800781 0-2.402343 0-3.199219.800781-10.402343 6.402343-19.203124 13.601562-24.800781.800781-.800781 1.597657-.800781 2.398438-1.601562h.800781c.800781-.800781 1.601562-.800781 2.398438-1.597657 4.800781-2.402343 10.402343-4 16-4h266.402343c5.597657 0 11.199219 1.597657 16 4 .800781 0 1.597657.796876 1.597657.796876 11.203124 6.402343 17.601562 17.601562 17.601562 30.402343zm0 0" fill="#84dbff"></path><path d="m336.199219 215.199219c-5.597657-3.199219-11.199219-4.800781-17.597657-4.800781h-266.402343c-18.398438 0-33.597657 14.402343-35.199219 32v30.402343l-12.800781-4.800781v-38.398438c.800781-10.402343 6.402343-19.203124 13.601562-24.800781.800781-.800781 1.597657-.800781 2.398438-1.601562h.800781c.800781-.800781 1.601562-.800781 2.398438-1.597657 4.800781-2.402343 10.402343-4 16-4h266.402343c5.597657 0 11.199219 1.597657 16 4 .800781 0 1.597657.796876 1.597657.796876 5.601562 3.203124 9.601562 8 12.800781 12.800781zm0 0" fill="#c5f1ff"></path><path d="m197.800781 327.199219h-50.402343c-.796876 0-.796876 0-1.597657 0l-143.199219-55.199219c-1.601562-.800781-2.402343-2.398438-2.402343-4v-35.199219c0-21.601562 17.601562-39.199219 39.199219-39.199219h266.402343c21.597657 0 39.199219 17.597657 39.199219 39.199219v35.199219c0 1.601562-.800781 3.199219-2.398438 4l-143.203124 55.199219s-.796876 0-1.597657 0zm-49.601562-8h48.800781l140-54.398438v-32c0-17.601562-14.398438-31.199219-31.199219-31.199219h-266.402343c-17.597657 0-31.199219 14.398438-31.199219 31.199219v32zm0 0" fill="#63312d"></path><path d="m309 440h-272.800781c-20 0-36-16-36-36v-174.398438c0-.800781 0-1.601562.800781-1.601562 2.398438-19.199219 19.199219-34.398438 38.398438-34.398438h266.402343c20 0 36 14.398438 38.398438 34.398438 0 .800781.800781 1.601562.800781 1.601562v174.398438c0 20-16 36-36 36zm-300.800781-208.800781v172.800781c0 15.199219 12.800781 28 28 28h272.800781c15.199219 0 28-12.800781 28-28v-172.800781-.800781c-1.601562-16-14.398438-28.796876-31.199219-28.796876h-266.402343c-16 0-29.597657 12-31.199219 28.796876.800781 0 0 .800781 0 .800781zm0 0" fill="#63312d"></path><path d="m147.398438 323.199219h50.402343v25.601562h-50.402343zm0 0" fill="#f9a287"></path><path d="m158.601562 333.601562h40v-10.402343h-51.203124v25.601562h11.203124zm0 0" fill="#ffcdc0"></path><g fill="#63312d"><path d="m198.601562 352.800781h-50.402343c-2.398438 0-4-1.601562-4-4v-25.601562c0-2.398438 1.601562-4 4-4h50.402343c2.398438 0 4 1.601562 4 4v25.601562c0 2.398438-2.402343 4-4 4zm-47.203124-8h42.402343v-17.601562h-42.402343zm0 0"></path><path d="m347.398438 440h-37.597657c-2.402343 0-4-1.601562-4-4s1.597657-4 4-4c15.199219 0 28-12.800781 28-28v-172.800781-.800781c-1.601562-16-14.402343-28.796876-31.199219-28.796876-2.402343 0-4-1.601562-4-4 0-2.402343 1.597657-4 4-4h37.597657c20 0 36 14.398438 38.402343 34.398438 0 .800781.796876 1.601562.796876 1.601562v174.398438c0 20-16 36-36 36zm-15.199219-8h15.199219c15.203124 0 28-12.800781 28-28v-172.800781-.800781c-1.597657-16-14.398438-28.796876-31.199219-28.796876h-14.398438c8 6.398438 13.597657 15.199219 15.199219 26.398438 0 .800781.800781.800781.800781 1.601562v174.398438c-.800781 11.199219-5.601562 21.601562-13.601562 28zm0 0"></path><path d="m341 264h37.601562v8h-37.601562zm0 0"></path></g><path d="m226.601562 197.601562v-29.601562c0-13.601562-10.402343-24-24-24h-60c-13.601562 0-24 10.398438-24 24v29.601562h20.796876v-24.800781c0-4.800781 3.203124-8 8-8h51.203124c4.796876 0 8 3.199219 8 8v24.800781zm0 0" fill="#f9dd9d"></path><path d="m226.601562 201.601562h-20c-2.402343 0-4-1.601562-4-4v-24.800781c0-2.402343-1.601562-4-4-4h-51.203124c-2.398438 0-4 1.597657-4 4v24.800781c0 2.398438-1.597657 4-4 4h-20.796876c-2.402343 0-4-1.601562-4-4v-29.601562c0-15.199219 12.796876-28 28-28h60c15.199219 0 28 12.800781 28 28v29.601562c0 2.398438-1.601562 4-4 4zm-16-8h12v-25.601562c0-11.199219-8.800781-20-20-20h-60c-11.203124 0-20 8.800781-20 20v25.601562h12.796876v-20.800781c0-6.402343 5.601562-12 12-12h51.203124c6.398438 0 12 5.597657 12 12zm0 0" fill="#63312d"></path><path d="m223.398438 144h-20.796876c13.597657 0 24 10.398438 24 24v29.601562h20.796876v-29.601562c0-12.800781-10.398438-24-24-24zm0 0" fill="#efc36a"></path><path d="m247.398438 201.601562h-20.796876c-2.402343 0-4-1.601562-4-4v-29.601562c0-11.199219-8.800781-20-20-20-2.402343 0-4-1.601562-4-4s1.597657-4 4-4h20.796876c15.203124 0 28 12.800781 28 28v29.601562c0 2.398438-1.597657 4-4 4zm-16.796876-8h12.796876v-25.601562c0-11.199219-8.796876-20-20-20h-.796876c4.796876 4.800781 8.796876 12 8.796876 20v25.601562zm0 0" fill="#63312d"></path><path d="m130.601562 114.398438h99.199219v8h-99.199219zm0 0" fill="#63312d"></path><path d="m159.398438 72.800781h70.402343v19.199219h-70.402343zm0 0" fill="#f9a287"></path><path d="m410.601562 411.199219v-25.597657l-18.402343-4c-.800781-2.402343-1.597657-4-2.398438-6.402343l9.597657-16-18.398438-18.398438-16 9.597657c-2.398438-.796876-4-1.597657-6.398438-2.398438l-4-18.398438h-25.601562l-4 18.398438c-2.398438.800781-4 1.601562-5.601562 2.398438l-15.199219-10.398438-18.398438 18.398438 9.597657 16c-.796876 2.402343-1.597657 4-2.398438 6.402343l-18.398438 4v25.597657l18.398438 4c.800781 2.402343 1.601562 4 2.398438 6.402343l-9.597657 15.199219 18.398438 18.398438 16-9.597657c2.402343.800781 4 1.597657 6.402343 2.398438l4 18.402343h25.597657l4-18.402343c2.402343-.800781 4-1.597657 6.402343-2.398438l15.199219 9.597657 18.398438-18.398438-9.597657-16c.796876-2.398438 1.597657-4 2.398438-6.398438zm-68 13.601562c-14.402343 0-26.402343-12-26.402343-26.402343 0-14.398438 12-26.398438 26.402343-26.398438 14.398438 0 26.398438 12 26.398438 26.398438 0 14.402343-12 26.402343-26.398438 26.402343zm0 0" fill="#f9a287"></path><path d="m355.398438 470.398438h-25.597657c-1.601562 0-3.199219-1.597657-4-3.199219l-3.199219-16c-.800781 0-1.601562-.800781-2.402343-.800781l-13.597657 8.800781c-1.601562.800781-4 .800781-4.800781-.800781l-18.402343-18.398438c-1.597657-1.601562-1.597657-3.199219-.796876-4.800781l8.796876-13.597657c0-.800781-.796876-1.601562-.796876-2.402343l-16-4c-2.402343-.800781-4-2.398438-4-4v-25.597657c0-1.601562 1.597657-3.203124 3.199219-4l16-3.203124c0-.796876.800781-1.597657.800781-2.398438l-8.800781-13.601562c-.800781-1.597657-.800781-4 .800781-4.796876l18.398438-18.402343c1.601562-1.597657 3.199219-1.597657 4.800781-.800781l13.597657 8.800781c.800781 0 1.601562-.800781 2.402343-.800781l3.199219-16c.800781-1.597657 2.398438-3.199219 4-3.199219h25.601562c1.597657 0 3.199219 1.601562 4 3.199219l3.199219 16c.800781 0 1.597657.800781 2.398438.800781l13.601562-8.800781c1.597657-.796876 4-.796876 4.800781.800781l18.398438 18.402343c1.601562 1.597657 1.601562 3.199219.800781 4.796876l-8.800781 13.601562c0 .800781.800781 1.601562.800781 2.398438l16 4c1.597657.800781 3.199219 2.402343 3.199219 4v25.601562c0 1.601562-1.601562 3.199219-3.199219 4l-16 3.199219c0 .800781-.800781 1.601562-.800781 2.402343l8.800781 13.597657c.800781 1.601562.800781 4-.800781 4.800781l-18.398438 18.398438c-1.601562 1.601562-3.203124 1.601562-4.800781.800781l-13.601562-8.800781c-.800781 0-1.597657.800781-2.398438.800781l-4 16c.800781 1.601562-.800781 3.199219-2.402343 3.199219zm-22.398438-8h19.199219l3.199219-15.199219c0-1.597657 1.601562-2.398438 2.402343-3.199219 2.398438-.800781 4-1.601562 5.597657-2.398438 1.601562-.800781 2.402343-.800781 4 0l12.800781 8 13.601562-13.601562-8-12.800781c-.800781-.800781-.800781-2.398438 0-4 .800781-1.597657 1.597657-4 2.398438-5.597657.800781-1.601562 1.601562-2.402343 3.199219-2.402343l15.203124-3.199219v-19.199219l-15.203124-3.199219c-1.597657 0-2.398438-1.601562-3.199219-2.402343-.800781-2.398438-1.597657-4-2.398438-5.597657-.800781-1.601562-.800781-2.402343 0-4l8-12.800781-13.601562-13.601562-12.800781 8c-.796876.800781-2.398438.800781-4 0-1.597657-.800781-4-1.597657-5.597657-2.398438-1.601562-.800781-2.402343-1.601562-2.402343-3.199219l-3.199219-15.203124h-19.199219l-3.199219 15.203124c0 1.597657-1.601562 2.398438-2.402343 3.199219-1.597657.800781-4 1.597657-5.597657 2.398438-1.601562.800781-2.402343.800781-4 0l-12.800781-8-13.601562 13.601562 8 12.800781c.800781.796876.800781 2.398438 0 4-.796876 1.597657-1.597657 4-2.398438 5.597657-.800781 1.601562-1.601562 2.402343-3.199219 2.402343l-15.199219 3.199219v19.199219l15.199219 3.199219c1.597657 0 2.398438 1.601562 3.199219 2.402343.800781 2.398438 1.601562 4 2.398438 5.597657.800781 1.601562.800781 2.402343 0 4l-8 12.800781 13.601562 13.601562 12.800781-8c.800781-.800781 2.398438-.800781 4 0 1.597657.796876 4 1.597657 5.597657 2.398438 1.601562.800781 2.402343 1.601562 2.402343 3.199219zm0 0" fill="#63312d"></path><path d="m369 398.398438c0 14.582031-11.820312 26.402343-26.398438 26.402343-14.582031 0-26.402343-11.820312-26.402343-26.402343 0-14.578126 11.820312-26.398438 26.402343-26.398438 14.578126 0 26.398438 11.820312 26.398438 26.398438zm0 0" fill="#fffbe1"></path><path d="m342.601562 428.800781c-16.800781 0-30.402343-13.601562-30.402343-30.402343 0-16.796876 13.601562-30.398438 30.402343-30.398438 16.796876 0 30.398438 13.601562 30.398438 30.398438 0 16.800781-13.601562 30.402343-30.398438 30.402343zm0-52.800781c-12 0-22.402343 9.601562-22.402343 22.398438 0 12 9.601562 22.402343 22.402343 22.402343 12.796876 0 22.398438-9.601562 22.398438-22.402343 0-12-10.398438-22.398438-22.398438-22.398438zm0 0" fill="#63312d"></path></svg>