<!-- icon666.com - MILLIONS vector ICONS FREE --><svg viewBox="0 0 414 414" xmlns="http://www.w3.org/2000/svg"><path d="m414 207c0 114.324219-92.675781 207-207 207s-207-92.675781-207-207 92.675781-207 207-207 207 92.675781 207 207zm0 0" fill="#f0c48a"></path><path d="m207.007812 285.683594h-150.058593v-174.09375l41.515625-41.515625h108.542968zm0 0" fill="#fff"></path><path d="m182.953125 70.074219h24.054687v215.609375h-24.054687zm0 0" fill="#d3e6f8"></path><path d="m56.949219 111.589844h41.515625v-41.515625zm0 0" fill="#7babf1"></path><g fill="#4c4372"><path d="m207.007812 291.683594h-150.058593c-3.3125 0-6-2.6875-6-6v-174.09375c0-1.59375.632812-3.117188 1.757812-4.242188l41.515625-41.515625c1.125-1.125 2.648438-1.757812 4.242188-1.757812h108.542968c3.3125 0 6 2.6875 6 6v215.609375c0 3.3125-2.6875 6-6 6zm-144.058593-12h138.058593v-203.609375h-100.058593l-38 38zm0 0"></path><path d="m98.464844 117.589844h-41.515625c-2.425781 0-4.613281-1.460938-5.542969-3.703125-.925781-2.242188-.414062-4.824219 1.300781-6.539063l41.515625-41.515625c1.714844-1.71875 4.296875-2.230469 6.539063-1.300781 2.242187.929688 3.703125 3.117188 3.703125 5.542969v41.515625c0 3.3125-2.6875 6-6 6zm-27.03125-12h21.03125v-21.027344zm0 0"></path><path d="m182.953125 183.878906h-101.949219c-3.3125 0-6-2.6875-6-6s2.6875-6 6-6h101.949219c3.3125 0 6 2.6875 6 6s-2.6875 6-6 6zm0 0"></path><path d="m182.953125 211.230469h-101.949219c-3.3125 0-6-2.6875-6-6 0-3.316407 2.6875-6 6-6h101.949219c3.3125 0 6 2.683593 6 6 0 3.3125-2.6875 6-6 6zm0 0"></path><path d="m182.953125 238.578125h-101.949219c-3.3125 0-6-2.6875-6-6s2.6875-6 6-6h101.949219c3.3125 0 6 2.6875 6 6s-2.6875 6-6 6zm0 0"></path><path d="m182.953125 265.929688h-101.949219c-3.3125 0-6-2.6875-6-6 0-3.316407 2.6875-6 6-6h101.949219c3.3125 0 6 2.683593 6 6 0 3.3125-2.6875 6-6 6zm0 0"></path></g><path d="m79.355469 128.285156h105.246093v26.667969h-105.246093zm0 0" fill="#fd919e"></path><path d="m184.601562 160.953125h-105.246093c-3.3125 0-6-2.6875-6-6v-26.667969c0-3.3125 2.6875-6 6-6h105.246093c3.3125 0 6 2.6875 6 6v26.667969c0 3.316406-2.6875 6-6 6zm-99.246093-12h93.246093v-14.667969h-93.246093zm0 0" fill="#4c4372"></path><path d="m347.25 343.925781h-200.730469c-5.414062 0-9.800781-4.390625-9.800781-9.800781v-130.445312c0-5.414063 4.386719-9.800782 9.800781-9.800782h200.730469c5.410156 0 9.800781 4.386719 9.800781 9.800782v130.445312c0 5.410156-4.390625 9.800781-9.800781 9.800781zm0 0" fill="#fd919e"></path><path d="m347.25 193.878906h-20.855469v150.046875h20.855469c5.410156 0 9.800781-4.390625 9.800781-9.804687v-130.441406c0-5.414063-4.390625-9.800782-9.800781-9.800782zm0 0" fill="#e8677d"></path><path d="m260.363281 276.472656h-26.960937c-5.160156 0-9.34375-4.183594-9.34375-9.34375v-12.667968h45.652344v12.667968c0 5.160156-4.1875 9.34375-9.347657 9.34375zm0 0" fill="#7babf1"></path><path d="m270.628906 157.34375h-47.488281c-8.878906 0-16.082031 7.199219-16.082031 16.078125v20.457031h16.109375v-15.996094c0-2.636718 2.136719-4.773437 4.773437-4.773437h37.882813c2.636719 0 4.773437 2.136719 4.773437 4.773437v15.996094h16.105469v-20.457031c.003906-8.878906-7.195313-16.078125-16.074219-16.078125zm0 0" fill="#7babf1"></path><path d="m347.25 349.925781h-200.730469c-8.714843 0-15.800781-7.089843-15.800781-15.800781v-130.445312c0-8.710938 7.085938-15.800782 15.800781-15.800782h200.730469c8.710938 0 15.800781 7.089844 15.800781 15.800782v130.445312c0 8.710938-7.089843 15.800781-15.800781 15.800781zm-200.730469-150.046875c-2.097656 0-3.800781 1.703125-3.800781 3.800782v130.445312c0 2.09375 1.703125 3.800781 3.800781 3.800781h200.730469c2.09375 0 3.800781-1.707031 3.800781-3.800781v-130.445312c0-2.097657-1.707031-3.800782-3.800781-3.800782zm0 0" fill="#4c4372"></path><path d="m260.363281 282.472656h-26.960937c-8.460938 0-15.34375-6.882812-15.34375-15.34375v-12.667968c0-3.316407 2.6875-6 6-6h45.652344c3.3125 0 6 2.683593 6 6v12.667968c0 8.460938-6.886719 15.34375-15.347657 15.34375zm-30.304687-22.011718v6.667968c0 1.84375 1.5 3.34375 3.34375 3.34375h26.960937c1.84375 0 3.34375-1.5 3.34375-3.34375v-6.667968zm0 0" fill="#4c4372"></path><path d="m357.050781 260.460938h-220.332031c-3.3125 0-6-2.6875-6-6 0-3.316407 2.6875-6 6-6h220.332031c3.3125 0 6 2.683593 6 6 0 3.3125-2.6875 6-6 6zm0 0" fill="#4c4372"></path><path d="m286.707031 199.878906h-16.105469c-3.316406 0-6-2.6875-6-6v-14.769531h-35.429687v14.769531c0 3.3125-2.6875 6-6 6h-16.109375c-3.3125 0-6-2.6875-6-6v-20.457031c0-12.175781 9.90625-22.078125 22.078125-22.078125h47.488281c12.175782 0 22.082032 9.902344 22.082032 22.078125v20.457031c-.003907 3.3125-2.691407 6-6.003907 6zm-10.109375-12h4.109375v-14.457031c0-5.558594-4.519531-10.078125-10.078125-10.078125h-47.488281c-5.558594 0-10.082031 4.519531-10.082031 10.078125v14.457031h4.109375v-9.996094c0-5.9375 4.832031-10.769531 10.773437-10.769531h37.882813c5.941406 0 10.773437 4.832031 10.773437 10.769531zm0 0" fill="#4c4372"></path><path d="m167.371094 193.878906h21.566406v150.046875h-21.566406zm0 0" fill="#d3e6f8"></path><path d="m304.828125 193.878906h21.566406v150.046875h-21.566406zm0 0" fill="#d3e6f8"></path><path d="m188.9375 349.925781h-21.566406c-3.3125 0-6-2.6875-6-6v-150.046875c0-3.3125 2.6875-6 6-6h21.566406c3.316406 0 6 2.6875 6 6v150.046875c0 3.3125-2.683594 6-6 6zm-15.566406-12h9.566406v-138.046875h-9.566406zm0 0" fill="#4c4372"></path><path d="m326.394531 349.925781h-21.566406c-3.3125 0-6-2.6875-6-6v-150.046875c0-3.3125 2.6875-6 6-6h21.566406c3.316407 0 6 2.6875 6 6v150.046875c0 3.3125-2.683593 6-6 6zm-15.566406-12h9.566406v-138.046875h-9.566406zm0 0" fill="#4c4372"></path><path d="m188.9375 294.964844h-21.566406c-3.3125 0-6-2.6875-6-6 0-3.316406 2.6875-6 6-6h21.566406c3.316406 0 6 2.683594 6 6 0 3.3125-2.683594 6-6 6zm0 0" fill="#4c4372"></path><path d="m326.394531 294.964844h-21.566406c-3.3125 0-6-2.6875-6-6 0-3.316406 2.6875-6 6-6h21.566406c3.316407 0 6 2.683594 6 6 0 3.3125-2.683593 6-6 6zm0 0" fill="#4c4372"></path></svg>